<mxfile host="app.diagrams.net" agent="Mozilla/5.0 (Windows NT 10.0; Win64; x64) AppleWebKit/537.36 (KHTML, like Gecko) Chrome/135.0.0.0 Safari/537.36" version="26.2.14">
  <diagram name="Page-1" id="RZKoRHA1GzQ5zlxt6r9U">
    <mxGraphModel dx="1183" dy="608" grid="1" gridSize="10" guides="1" tooltips="1" connect="1" arrows="1" fold="1" page="1" pageScale="1" pageWidth="850" pageHeight="1100" math="0" shadow="0">
      <root>
        <mxCell id="0" />
        <mxCell id="1" parent="0" />
        <mxCell id="6f6DWrD_Cjwt9ezdIyRF-9" value="" style="edgeStyle=orthogonalEdgeStyle;rounded=0;orthogonalLoop=1;jettySize=auto;html=1;" edge="1" parent="1" source="6f6DWrD_Cjwt9ezdIyRF-1" target="6f6DWrD_Cjwt9ezdIyRF-5">
          <mxGeometry relative="1" as="geometry" />
        </mxCell>
        <mxCell id="6f6DWrD_Cjwt9ezdIyRF-1" value="STM32F103C8T6" style="rounded=1;whiteSpace=wrap;html=1;fontStyle=1" vertex="1" parent="1">
          <mxGeometry x="120" y="160" width="120" height="60" as="geometry" />
        </mxCell>
        <mxCell id="6f6DWrD_Cjwt9ezdIyRF-11" value="" style="edgeStyle=orthogonalEdgeStyle;rounded=0;orthogonalLoop=1;jettySize=auto;html=1;" edge="1" parent="1" source="6f6DWrD_Cjwt9ezdIyRF-2" target="6f6DWrD_Cjwt9ezdIyRF-6">
          <mxGeometry relative="1" as="geometry" />
        </mxCell>
        <mxCell id="6f6DWrD_Cjwt9ezdIyRF-2" value="STM32F103C8T6" style="rounded=1;whiteSpace=wrap;html=1;fontStyle=1" vertex="1" parent="1">
          <mxGeometry x="440" y="160" width="120" height="60" as="geometry" />
        </mxCell>
        <mxCell id="6f6DWrD_Cjwt9ezdIyRF-7" style="edgeStyle=orthogonalEdgeStyle;rounded=0;orthogonalLoop=1;jettySize=auto;html=1;entryX=0.5;entryY=1;entryDx=0;entryDy=0;startArrow=classic;startFill=1;" edge="1" parent="1" source="6f6DWrD_Cjwt9ezdIyRF-3" target="6f6DWrD_Cjwt9ezdIyRF-4">
          <mxGeometry relative="1" as="geometry">
            <Array as="points">
              <mxPoint x="180" y="360" />
              <mxPoint x="500" y="360" />
            </Array>
          </mxGeometry>
        </mxCell>
        <mxCell id="6f6DWrD_Cjwt9ezdIyRF-8" value="" style="edgeStyle=orthogonalEdgeStyle;rounded=0;orthogonalLoop=1;jettySize=auto;html=1;startArrow=classic;startFill=1;" edge="1" parent="1" source="6f6DWrD_Cjwt9ezdIyRF-3" target="6f6DWrD_Cjwt9ezdIyRF-1">
          <mxGeometry relative="1" as="geometry" />
        </mxCell>
        <mxCell id="6f6DWrD_Cjwt9ezdIyRF-3" value="Transceiver" style="rounded=1;whiteSpace=wrap;html=1;fontStyle=0" vertex="1" parent="1">
          <mxGeometry x="120" y="280" width="120" height="60" as="geometry" />
        </mxCell>
        <mxCell id="6f6DWrD_Cjwt9ezdIyRF-10" value="" style="edgeStyle=orthogonalEdgeStyle;rounded=0;orthogonalLoop=1;jettySize=auto;html=1;startArrow=classic;startFill=1;" edge="1" parent="1" source="6f6DWrD_Cjwt9ezdIyRF-4" target="6f6DWrD_Cjwt9ezdIyRF-2">
          <mxGeometry relative="1" as="geometry" />
        </mxCell>
        <mxCell id="6f6DWrD_Cjwt9ezdIyRF-4" value="Transceiver" style="rounded=1;whiteSpace=wrap;html=1;fontStyle=0" vertex="1" parent="1">
          <mxGeometry x="440" y="280" width="120" height="60" as="geometry" />
        </mxCell>
        <mxCell id="6f6DWrD_Cjwt9ezdIyRF-5" value="USB TTL" style="rounded=1;whiteSpace=wrap;html=1;fontStyle=0" vertex="1" parent="1">
          <mxGeometry x="120" y="40" width="120" height="60" as="geometry" />
        </mxCell>
        <mxCell id="6f6DWrD_Cjwt9ezdIyRF-6" value="USB TTL" style="rounded=1;whiteSpace=wrap;html=1;fontStyle=0" vertex="1" parent="1">
          <mxGeometry x="440" y="40" width="120" height="60" as="geometry" />
        </mxCell>
      </root>
    </mxGraphModel>
  </diagram>
</mxfile>
